<?xml version="1.0" encoding="UTF-8" standalone="no"?>
<!-- Created with Inkscape (http://www.inkscape.org/) -->

<svg
   width="33.866665mm"
   height="33.866665mm"
   viewBox="0 0 33.866665 33.866665"
   version="1.1"
   id="svg5"
   xml:space="preserve"
   inkscape:version="1.2.2 (732a01da63, 2022-12-09)"
   sodipodi:docname="icon_notified.svg"
   inkscape:export-filename="icon_notified.png"
   inkscape:export-xdpi="96.000008"
   inkscape:export-ydpi="96.000008"
   xmlns:inkscape="http://www.inkscape.org/namespaces/inkscape"
   xmlns:sodipodi="http://sodipodi.sourceforge.net/DTD/sodipodi-0.dtd"
   xmlns="http://www.w3.org/2000/svg"
   xmlns:svg="http://www.w3.org/2000/svg"><sodipodi:namedview
     id="namedview7"
     pagecolor="#505050"
     bordercolor="#eeeeee"
     borderopacity="1"
     inkscape:showpageshadow="0"
     inkscape:pageopacity="0"
     inkscape:pagecheckerboard="0"
     inkscape:deskcolor="#505050"
     inkscape:document-units="mm"
     showgrid="false"
     inkscape:zoom="1.5233586"
     inkscape:cx="-57.438872"
     inkscape:cy="32.822213"
     inkscape:window-width="1920"
     inkscape:window-height="1009"
     inkscape:window-x="-8"
     inkscape:window-y="585"
     inkscape:window-maximized="1"
     inkscape:current-layer="g1876" /><defs
     id="defs2" /><g
     inkscape:label="Calque 1"
     inkscape:groupmode="layer"
     id="layer1"
     transform="translate(-88.505951,-62.266332)"><ellipse
       style="fill:#000000;fill-opacity:0;stroke-width:3;stroke-linejoin:round"
       id="path403"
       cx="112.25134"
       cy="88.42556"
       rx="24.071404"
       ry="26.282042" /><g
       id="g1876"><g
         id="g1861"
         transform="translate(-0.03694272,-0.85969257)"><path
           id="path457"
           style="fill:#ce1126;fill-opacity:1;stroke-width:1.9288;stroke-linejoin:round"
           d="M 111.17459,95.993269 A 16.933332,16.933332 0 0 0 122.40956,80.059358 16.933332,16.933332 0 0 0 111.17459,64.114595 Z" /><path
           id="path408"
           style="fill:#002654;fill-opacity:1;stroke-width:1.9288;stroke-linejoin:round"
           d="m 99.711721,64.149218 a 16.933332,16.933332 0 0 0 -11.168827,15.91014 16.933332,16.933332 0 0 0 11.168827,15.91014 z" /><path
           id="path406"
           style="fill:#ffffff;fill-opacity:1;stroke-width:1.9288;stroke-linejoin:round"
           d="m 99.711721,64.149218 v 31.82028 a 16.933332,16.933332 0 0 0 5.764509,1.023193 16.933332,16.933332 0 0 0 5.69836,-0.999422 V 64.114595 a 16.933332,16.933332 0 0 0 -5.69836,-0.98857 16.933332,16.933332 0 0 0 -5.764509,1.023193 z" /></g><circle
         style="fill:#00d511;fill-opacity:1;stroke-width:2.86813;stroke-linejoin:round"
         id="path1024"
         cx="114.17553"
         cy="88.577728"
         r="7.5552626" /></g></g></svg>
