<?xml version="1.0" encoding="UTF-8"?>
<svg width="125px" height="112px" viewBox="0 0 125 112" version="1.1" xmlns="http://www.w3.org/2000/svg" xmlns:xlink="http://www.w3.org/1999/xlink">
    <title>1-HEADER</title>
    <g id="Accueil" stroke="none" stroke-width="1" fill="none" fill-rule="evenodd">
        <g id="1.ANSSI-V4---Accueil-desktop" transform="translate(-229.000000, -66.000000)" fill-rule="nonzero">
            <g id="REPUBLIQUE_FRANCAISE_SANS_MARGES" transform="translate(229.000000, 66.000000)">
                <g id="Group" transform="translate(0.600000, 26.000000)" fill="#000000">
                    <path d="M0.12,4.1 L4.52,4.1 C7.68,4.1 9.64,5.72 9.64,8.4 C9.64,10.12 8.8,11.42 7.34,12.12 L11.86,18.48 L8.36,18.48 L4.54,12.66 L3.04,12.66 L3.04,18.48 L0.12,18.48 L0.12,4.1 Z M3.04,6.58 L3.04,10.18 L4.68,10.18 C5.92,10.18 6.64,9.52 6.64,8.36 C6.64,7.28 5.92,6.6 4.68,6.6 L3.04,6.6 L3.04,6.58 Z" id="Shape"></path>
                    <path d="M13.68,4.1 L22.06,4.1 L22.06,6.58 L16.6,6.58 L16.6,9.9 L21.24,9.9 L21.24,12.4 L16.6,12.4 L16.6,16 L22.06,16 L22.06,18.48 L13.68,18.48 L13.68,4.1 Z M16.52,2.86 L18.84,0.08 L21.84,0.08 L19.16,2.86 L16.52,2.86 Z" id="Shape"></path>
                    <path d="M25.46,4.1 L30.2,4.1 C33.36,4.1 35.3,5.72 35.3,8.4 C35.3,11.06 33.36,12.68 30.2,12.68 L28.38,12.68 L28.38,18.5 L25.46,18.5 L25.46,4.1 Z M28.38,6.58 L28.38,10.18 L30.34,10.18 C31.58,10.18 32.32,9.52 32.32,8.36 C32.32,7.28 31.58,6.6 30.34,6.6 L28.38,6.6 L28.38,6.58 Z" id="Shape"></path>
                    <path d="M46.06,4.1 L48.98,4.1 L48.98,12.86 C48.98,16.64 46.76,18.9 43.14,18.9 C39.54,18.9 37.32,16.64 37.32,12.86 L37.32,4.1 L40.24,4.1 L40.24,13.1 C40.24,15.04 41.32,16.16 43.16,16.16 C44.94,16.16 46.06,15.04 46.06,13.1 L46.06,4.1 Z" id="Path"></path>
                    <path d="M52.6,4.1 L56.68,4.1 C59.68,4.1 61.48,5.58 61.48,8 C61.48,9.16 60.94,10.16 59.96,10.84 C61.48,11.52 62.32,12.76 62.32,14.26 C62.32,16.88 60.28,18.5 56.98,18.5 L52.58,18.5 L52.58,4.1 L52.6,4.1 Z M55.52,6.58 L55.52,9.72 L56.76,9.72 C57.86,9.72 58.5,9.16 58.5,8.14 C58.5,7.18 57.86,6.58 56.76,6.58 L55.52,6.58 L55.52,6.58 Z M55.52,12.24 L55.52,16 L57.16,16 C58.52,16 59.34,15.28 59.34,14.08 C59.34,12.88 58.52,12.24 57.16,12.24 L55.52,12.24 L55.52,12.24 Z" id="Shape"></path>
                    <polygon id="Path" points="65.34 4.1 68.26 4.1 68.26 15.84 73.72 15.84 73.72 18.5 65.34 18.5 65.34 4.1"></polygon>
                    <polygon id="Path" points="76.32 4.1 79.24 4.1 79.24 18.48 76.32 18.48"></polygon>
                    <path d="M98.36,19.48 C98.66,19.48 99.08,19.44 99.38,19.32 L99.38,21.78 C98.9,21.96 98.5,22.04 97.86,22.04 C96.26,22.04 94.78,21.38 93.36,20.14 L91.66,18.62 C91.04,18.78 90.38,18.86 89.68,18.86 C85.14,18.86 82.04,15.36 82.04,11.26 C82.04,7.16 85.14,3.66 89.68,3.66 C94.2,3.66 97.3,7.16 97.3,11.26 C97.3,13.66 96.24,15.86 94.46,17.26 L95.32,18.08 C96.44,19.12 97.44,19.48 98.36,19.48 Z M94.32,11.28 C94.32,8.52 92.38,6.42 89.7,6.42 C86.98,6.42 85.06,8.54 85.06,11.28 C85.06,14.04 87,16.14 89.7,16.14 C92.38,16.16 94.32,14.04 94.32,11.28 Z" id="Shape"></path>
                    <path d="M108.44,4.1 L111.36,4.1 L111.36,12.86 C111.36,16.64 109.14,18.9 105.52,18.9 C101.92,18.9 99.7,16.64 99.7,12.86 L99.7,4.1 L102.62,4.1 L102.62,13.1 C102.62,15.04 103.7,16.16 105.54,16.16 C107.32,16.16 108.44,15.04 108.44,13.1 L108.44,4.1 Z" id="Path"></path>
                    <polygon id="Path" points="115 4.1 123.38 4.1 123.38 6.58 117.92 6.58 117.92 9.9 122.56 9.9 122.56 12.4 117.92 12.4 117.92 16 123.38 16 123.38 18.48 115 18.48"></polygon>
                </g>
                <g id="Group" transform="translate(0.600000, 50.600000)" fill="#000000">
                    <polygon id="Path" points="0.12 0.58 8.5 0.58 8.5 3.06 3.04 3.06 3.04 6.4 7.68 6.4 7.68 8.88 3.04 8.88 3.04 14.96 0.12 14.96"></polygon>
                    <path d="M11.08,0.58 L15.48,0.58 C18.64,0.58 20.6,2.2 20.6,4.88 C20.6,6.6 19.76,7.9 18.3,8.6 L22.82,14.96 L19.32,14.96 L15.5,9.14 L14,9.14 L14,14.96 L11.08,14.96 L11.08,0.58 Z M14,3.06 L14,6.66 L15.64,6.66 C16.88,6.66 17.6,6 17.6,4.84 C17.6,3.76 16.88,3.08 15.64,3.08 L14,3.08 L14,3.06 Z" id="Shape"></path>
                    <path d="M28.28,0.58 L32.1,0.58 L37.54,14.96 L34.44,14.96 L33.06,11.22 L27.3,11.22 L25.92,14.96 L22.82,14.96 L28.28,0.58 Z M32.16,8.74 L30.18,3.34 L28.2,8.74 L32.16,8.74 Z" id="Shape"></path>
                    <polygon id="Path" points="39.78 0.58 43.52 0.58 49.96 10.88 49.96 0.58 52.88 0.58 52.88 14.96 49.14 14.96 42.7 4.62 42.7 14.96 39.78 14.96 39.78 0.58"></polygon>
                    <path d="M67.1,10.66 L69.4,12.42 C68.3,13.94 66.56,15 64.46,15.28 L62.68,18.26 L60.1,18.26 L61.9,15.24 C58.16,14.58 55.7,11.42 55.7,7.76 C55.7,3.66 58.8,0.16 63.34,0.16 C65.94,0.16 68.08,1.34 69.4,3.08 L67.1,4.86 C66.28,3.68 64.98,2.88 63.34,2.88 C60.62,2.88 58.7,5 58.7,7.74 C58.7,10.48 60.64,12.6 63.34,12.6 C64.98,12.64 66.26,11.84 67.1,10.66 Z" id="Path"></path>
                    <path d="M75.58,0.58 L79.4,0.58 L84.84,14.96 L81.74,14.96 L80.36,11.22 L74.6,11.22 L73.22,14.96 L70.12,14.96 L75.58,0.58 Z M79.46,8.74 L77.48,3.34 L75.5,8.74 L79.46,8.74 Z" id="Shape"></path>
                    <polygon id="Path" points="87.08 0.58 90 0.58 90 14.96 87.08 14.96"></polygon>
                    <path d="M94.86,11.02 C95.72,12.12 96.88,12.78 98.04,12.78 C99.2,12.78 99.88,12.16 99.88,11.12 C99.88,8.56 93.3,9.12 93.3,4.34 C93.3,2.06 95.16,0.16 97.9,0.16 C100.06,0.16 101.72,1.12 102.94,2.58 L100.8,4.5 C99.96,3.42 99.02,2.72 97.92,2.72 C96.92,2.72 96.26,3.38 96.26,4.22 C96.26,6.78 102.84,6.2 102.84,11.06 C102.8,13.74 100.7,15.38 98.08,15.38 C95.66,15.38 94.02,14.5 92.74,12.98 L94.86,11.02 Z" id="Path"></path>
                    <polygon id="Path" points="105.94 0.58 114.32 0.58 114.32 3.06 108.86 3.06 108.86 6.4 113.5 6.4 113.5 8.88 108.86 8.88 108.86 12.48 114.32 12.48 114.32 14.96 105.94 14.96"></polygon>
                </g>
                <path d="M18.48,17.66 C18.48,17.66 18.5,17.66 18.48,17.66 C18.56,17.62 18.6,17.6 18.64,17.56 C18.64,17.56 18.62,17.56 18.62,17.56 C18.58,17.58 18.54,17.62 18.48,17.66" id="Path" fill="#1F356C"></path>
                <path d="M25.78,15.22 L25.74,15.26 C25.76,15.26 25.78,15.26 25.78,15.22" id="Path" fill="#1F356C"></path>
                <path d="M23.48,17.78 C23.7,17.56 23.9,17.34 24.12,17.1 L24.12,17.1 C24.52,16.64 24.92,16.22 25.38,15.82 C25.52,15.7 25.66,15.58 25.8,15.5 C25.84,15.46 25.84,15.38 25.88,15.34 C25.7,15.42 25.58,15.56 25.4,15.64 C25.36,15.64 25.32,15.6 25.36,15.56 C25.5,15.46 25.62,15.36 25.76,15.26 C25.76,15.26 25.74,15.26 25.74,15.26 C25.7,15.26 25.7,15.22 25.7,15.18 C25.22,15.1 24.84,15.44 24.5,15.74 C24.42,15.78 24.34,15.7 24.32,15.7 C23.76,15.88 23.34,16.38 22.78,16.6 L22.78,16.52 C22.56,16.6 22.34,16.74 22.1,16.78 C21.76,16.86 21.46,16.82 21.16,16.82 C20.7,16.86 20.24,16.96 19.8,17.06 C19.78,17.06 19.78,17.06 19.76,17.06 C19.52,17.12 19.28,17.22 19.06,17.34 C19.06,17.34 19.04,17.36 19.04,17.36 C19.02,17.38 19,17.4 18.98,17.42 C18.9,17.5 18.82,17.6 18.72,17.64 C18.48,17.76 18.3,17.96 18.1,18.12 C18.02,18.2 18,18.2 17.98,18.2 C17.78,18.4 17.58,18.58 17.38,18.78 C17.36,18.8 17.3,18.8 17.26,18.8 C17.26,18.8 17.26,18.8 17.26,18.8 C17.26,18.78 17.28,18.78 17.28,18.76 C17.32,18.7 17.34,18.66 17.38,18.6 C17.42,18.54 17.46,18.48 17.5,18.42 C17.56,18.34 17.6,18.26 17.66,18.2 C17.68,18.18 17.68,18.16 17.66,18.14 C17.64,18.12 17.62,18.12 17.6,18.12 C17.78,17.94 18.02,17.78 18.24,17.64 L18.24,17.64 C18.22,17.64 18.18,17.62 18.2,17.6 C18.22,17.56 18.24,17.54 18.26,17.5 C18.26,17.48 18.26,17.48 18.28,17.46 C18.28,17.46 18.26,17.44 18.26,17.44 C18.2,17.48 18.14,17.52 18.08,17.56 C17.98,17.64 17.92,17.8 17.78,17.8 C17.78,17.8 17.74,17.8 17.72,17.8 C17.7,17.8 17.68,17.8 17.68,17.78 C17.68,17.78 17.68,17.78 17.68,17.78 C17.68,17.78 17.68,17.78 17.68,17.76 C17.68,17.76 17.68,17.76 17.68,17.76 C17.68,17.74 17.7,17.74 17.7,17.72 C17.7,17.7 17.72,17.7 17.72,17.68 C17.72,17.68 17.72,17.66 17.74,17.66 C17.74,17.64 17.76,17.62 17.76,17.62 C17.76,17.6 17.78,17.6 17.78,17.58 C17.8,17.56 17.82,17.52 17.82,17.5 C17.82,17.48 17.84,17.48 17.84,17.46 C17.86,17.44 17.86,17.42 17.88,17.4 C17.9,17.36 17.88,17.34 17.86,17.34 C17.92,17.24 18.02,17.18 18.12,17.12 L18.1,17.12 C18.24,17.04 18.38,16.96 18.54,16.88 C18.56,16.86 18.58,16.84 18.6,16.82 C18.38,16.9 18.2,17 18,17.12 C18,17.12 17.96,17.14 17.94,17.16 C17.94,17.16 17.9,17.18 17.84,17.12 C17.84,17.12 17.84,17.1 17.84,17.1 C17.88,17.02 18,16.98 18.06,16.92 C18.1,16.92 18.14,16.92 18.14,16.96 C19.34,16.02 21,16.24 22.4,15.76 C22.52,15.68 22.62,15.62 22.74,15.54 C22.92,15.46 23.08,15.28 23.3,15.16 C23.6,14.94 23.82,14.68 23.94,14.3 C23.94,14.26 23.9,14.22 23.9,14.22 C23.42,14.74 22.84,15.16 22.24,15.46 C21.44,15.88 20.58,15.8 19.76,15.92 C19.8,15.84 19.88,15.84 19.94,15.84 C19.94,15.72 20.02,15.68 20.1,15.62 L20.22,15.62 C20.26,15.62 20.26,15.54 20.3,15.54 C20.38,15.54 20.48,15.5 20.46,15.5 C20.34,15.34 20.12,15.62 19.94,15.5 C20.02,15.42 19.98,15.32 20.06,15.28 L20.22,15.28 C20.22,15.2 20.3,15.12 20.3,15.12 C20.86,14.78 21.4,14.52 21.92,14.22 C21.8,14.22 21.74,14.34 21.62,14.26 C21.7,14.26 21.62,14.14 21.7,14.14 C22.12,14.02 22.46,13.8 22.86,13.66 C22.7,13.66 22.6,13.78 22.44,13.66 C22.52,13.62 22.56,13.54 22.66,13.54 L22.66,13.42 C22.66,13.38 22.7,13.38 22.74,13.38 C22.7,13.38 22.66,13.34 22.66,13.34 C22.7,13.26 22.82,13.3 22.88,13.22 C22.84,13.22 22.76,13.22 22.76,13.18 C22.88,13.02 23.06,13 23.24,12.96 C23.2,12.88 23.08,12.96 23.08,12.88 C23.08,12.84 23.12,12.84 23.16,12.84 L23.08,12.84 C23,12.8 23.04,12.72 23.04,12.68 C23.26,12.42 23.26,12.08 23.38,11.78 C23.34,11.78 23.3,11.78 23.3,11.74 C22.92,12.16 22.32,12.3 21.76,12.46 L21.58,12.46 C21.4,12.54 21.12,12.54 20.94,12.42 C20.78,12.34 20.72,12.24 20.56,12.12 C20.26,11.94 19.96,11.78 19.62,11.66 C18.68,11.36 17.7,11.2 16.72,11.24 C17.14,11.02 17.6,11 18.04,10.86 C18.68,10.68 19.28,10.44 19.96,10.48 C19.84,10.44 19.7,10.48 19.58,10.48 C19.06,10.44 18.52,10.6 17.96,10.7 C17.58,10.78 17.24,10.92 16.86,11 C16.64,11.08 16.52,11.3 16.26,11.26 L16.26,11.14 C16.64,10.68 17.08,10.24 17.7,10.2 C18.38,10.08 19.02,10.2 19.7,10.28 C20.18,10.32 20.64,10.44 21.14,10.54 C21.32,10.54 21.36,10.84 21.52,10.88 C21.74,10.96 21.98,10.88 22.2,11.04 C22.2,10.96 22.16,10.88 22.2,10.82 C22.36,10.66 22.54,10.86 22.68,10.78 C22.98,10.6 22.42,10.26 22.26,9.98 C22.26,9.94 22.3,9.9 22.3,9.9 C22.6,10.16 22.82,10.46 23.2,10.66 C23.38,10.74 23.84,10.84 23.76,10.62 C23.58,10.2 23.2,9.86 22.9,9.5 L22.9,9.34 C22.82,9.34 22.82,9.3 22.78,9.26 L22.78,9.1 C22.62,9.02 22.66,8.88 22.6,8.76 C22.48,8.58 22.56,8.3 22.48,8.08 C22.4,7.86 22.36,7.66 22.32,7.44 C22.2,6.8 22.06,6.24 21.98,5.64 C21.9,4.92 22.4,4.36 22.74,3.72 C23,3.26 23.3,2.82 23.8,2.52 C23.92,2.06 24.22,1.7 24.52,1.32 C24.82,0.96 25.32,0.72 25.68,0.56 C26.2,0.32 26.68,0.18 26.68,0.18 L0.66,0.18 L0.66,20.1 L19.14,20.1 C19.86,19.58 20.58,19.34 21.58,18.84 C22.04,18.64 23.12,18.14 23.48,17.78 M17.68,15.08 C17.6,15.08 17.46,15.12 17.5,15.04 C17.54,14.86 17.8,14.86 17.96,14.78 C18.04,14.74 18.14,14.66 18.22,14.7 C18.3,14.82 18.4,14.78 18.48,14.86 C18.26,15.08 17.96,14.96 17.68,15.08 M11.92,14.26 C11.92,14.26 11.88,14.22 11.88,14.18 C12.38,13.54 12.74,12.94 13.08,12.26 C13.58,12 14,11.6 14.38,11.2 C15.02,10.52 15.7,9.92 16.48,9.54 C16.78,9.42 17.16,9.46 17.46,9.58 C17.34,9.74 17.16,9.7 17,9.8 C16.96,9.8 16.92,9.8 16.88,9.76 C16.92,9.72 16.92,9.68 16.92,9.64 C16.54,10.06 16.02,10.24 15.72,10.74 C15.5,11.12 15.34,11.6 14.86,11.72 C14.7,11.76 14.9,11.6 14.82,11.64 C13.66,12.36 12.84,13.24 11.92,14.26 M15.06,11.76 C15.02,11.84 14.98,11.84 14.94,11.9 C14.9,11.98 14.86,12.02 14.78,12.06 C14.74,12.06 14.7,12.06 14.7,12.02 C14.74,11.86 14.86,11.72 15,11.68 C15.06,11.7 15.06,11.72 15.06,11.76 M16.8,17.4 C16.78,17.44 16.74,17.48 16.7,17.5 C16.74,17.5 16.78,17.52 16.74,17.56 C16.66,17.64 16.56,17.72 16.46,17.76 C16.46,17.76 16.42,17.76 16.4,17.76 C16.36,17.8 16.3,17.84 16.26,17.9 C16.22,17.94 16,17.92 16.08,17.86 C16.18,17.78 16.26,17.68 16.36,17.6 C16.42,17.56 16.46,17.5 16.52,17.46 C16.54,17.42 16.56,17.4 16.6,17.38 C16.64,17.36 16.84,17.34 16.8,17.4 M16.12,17.1 C16.12,17.1 16.12,17.1 16.12,17.1 C15.96,17.2 15.82,17.3 15.68,17.4 C15.52,17.5 15.36,17.56 15.18,17.64 C15.18,17.64 15.18,17.64 15.18,17.64 C15.18,17.6 15.14,17.6 15.12,17.6 C14.98,17.68 14.86,17.78 14.74,17.88 C14.72,17.9 14.7,17.92 14.68,17.94 L14.68,17.94 C14.68,17.94 14.68,17.94 14.68,17.94 C14.66,17.96 14.64,17.98 14.62,18 C14.62,18 14.62,18 14.62,18 C14.62,18 14.62,18 14.62,18 C14.6,18.02 14.56,18.06 14.54,18.08 C14.52,18.1 14.52,18.12 14.48,18.14 C14.46,18.16 14.4,18.16 14.4,18.12 C14.4,18.12 14.4,18.12 14.4,18.12 C14.38,18.14 14.36,18.14 14.34,18.16 C14.32,18.18 14.3,18.18 14.28,18.2 C14.28,18.2 14.26,18.2 14.26,18.2 C14.26,18.2 14.24,18.2 14.24,18.2 C14.2,18.24 14.14,18.28 14.1,18.32 C14.02,18.4 13.94,18.46 13.88,18.56 C13.88,18.56 13.88,18.56 13.88,18.56 C13.88,18.56 13.88,18.56 13.88,18.58 C13.88,18.58 13.88,18.58 13.86,18.6 C13.86,18.6 13.86,18.62 13.84,18.62 C13.84,18.62 13.84,18.62 13.84,18.62 C13.84,18.64 13.82,18.64 13.82,18.66 C13.82,18.66 13.82,18.66 13.82,18.66 C13.82,18.66 13.8,18.68 13.78,18.68 C13.78,18.68 13.76,18.66 13.76,18.66 C13.76,18.66 13.76,18.64 13.74,18.64 C13.72,18.62 13.72,18.6 13.7,18.58 C13.7,18.58 13.7,18.58 13.7,18.58 C13.7,18.58 13.7,18.56 13.7,18.56 C13.74,18.52 13.78,18.48 13.82,18.42 C13.82,18.42 13.82,18.42 13.82,18.42 C13.84,18.4 13.84,18.38 13.86,18.38 C13.88,18.36 13.9,18.32 13.92,18.3 C13.92,18.28 13.94,18.28 13.94,18.28 C13.98,18.22 14.02,18.18 14.06,18.12 C14.06,18.12 14.06,18.12 14.06,18.12 C14.06,18.12 14.08,18.1 14.08,18.1 C14.1,18.08 14.12,18.04 14.14,18.02 C14.16,18 14.16,17.96 14.18,17.94 C14.18,17.94 14.18,17.94 14.18,17.94 C14.18,17.94 14.18,17.94 14.18,17.94 C14.18,17.94 14.18,17.94 14.18,17.92 C14.2,17.9 14.2,17.86 14.22,17.84 C14.22,17.84 14.22,17.84 14.22,17.82 C14.22,17.82 14.22,17.8 14.22,17.8 C14.22,17.78 14.22,17.78 14.24,17.76 C14.24,17.76 14.24,17.76 14.24,17.76 C14.24,17.74 14.24,17.72 14.26,17.7 C14.26,17.7 14.26,17.68 14.26,17.68 C14.3,17.6 14.36,17.54 14.42,17.48 C14.42,17.48 14.4,17.48 14.4,17.5 C14.34,17.54 14.3,17.58 14.26,17.62 C14.22,17.66 14.14,17.6 14.2,17.56 C14.24,17.54 14.26,17.5 14.28,17.48 C14.28,17.48 14.28,17.48 14.28,17.48 C14.34,17.42 14.4,17.34 14.48,17.28 C14.52,17.24 14.56,17.22 14.6,17.2 C14.6,17.2 14.62,17.2 14.62,17.18 C14.64,17.14 14.68,17.12 14.7,17.08 C14.7,17.08 14.7,17.08 14.7,17.08 C15.06,16.74 15.66,16.74 16.14,16.52 C16.32,16.44 16.56,16.56 16.74,16.52 C16.86,16.52 16.96,16.52 17.08,16.6 C16.74,16.7 16.44,16.9 16.12,17.1 M16.9,14.48 C16.86,14.44 17.02,14.48 17.06,14.4 L16.76,14.4 C16.72,14.4 16.72,14.36 16.72,14.32 C16.54,14.36 16.3,14.44 16.12,14.46 C15.86,14.54 15.64,14.72 15.32,14.8 C14.9,14.96 14.56,15.28 14.12,15.44 C14.08,15.44 14.08,15.4 14.08,15.36 C14.12,15.24 14.26,15.22 14.34,15.1 C14.34,15.06 14.34,15.02 14.3,15.02 C14.6,14.6 15.02,14.38 15.4,14.04 L15.4,13.92 C15.52,13.76 15.7,13.7 15.78,13.5 C15.82,13.38 15.96,13.24 16.16,13.16 C16.12,13.12 16.04,13.12 16.04,13.04 C15.88,13.04 15.74,13.12 15.58,13 C15.66,12.92 15.74,12.9 15.82,12.86 C15.78,12.86 15.76,12.84 15.74,12.8 C15.7,12.72 15.82,12.64 15.92,12.62 C16.08,12.58 16.26,12.58 16.38,12.46 C16.12,12.42 15.82,12.54 15.56,12.38 C15.74,11.9 16.04,11.48 16.5,11.26 C16.54,11.26 16.62,11.26 16.62,11.3 C16.62,11.48 16.5,11.64 16.32,11.68 C16.62,11.76 16.92,11.76 17.22,11.9 C17.18,11.98 17.1,11.94 17.06,11.94 C17.24,12.06 17.48,11.98 17.66,12.12 C17.54,12.24 17.44,12.12 17.32,12.12 C18.48,12.46 19.72,12.72 20.7,13.48 C19.88,13.9 19,14.08 18.1,14.28 C17.98,14.28 17.92,14.28 17.8,14.24 C17.8,14.28 17.8,14.36 17.76,14.36 C17.6,14.36 17.5,14.36 17.38,14.44 C17.24,14.56 17.02,14.58 16.9,14.48" id="Shape" fill="#000091"></path>
                <path d="M55.62,0.2 L34.18,0.2 C34.18,0.2 34.22,0.2 34.38,0.3 C34.56,0.4 34.78,0.52 34.92,0.58 C35.2,0.72 35.46,0.9 35.64,1.18 C35.72,1.3 35.82,1.52 35.76,1.66 C35.68,1.84 35.64,2.14 35.46,2.22 C35.24,2.34 34.94,2.34 34.66,2.3 C34.5,2.3 34.36,2.26 34.2,2.22 C34.76,2.44 35.3,2.7 35.66,3.24 C35.7,3.32 35.84,3.36 36,3.36 C36.04,3.36 36.04,3.44 36.04,3.48 C35.96,3.56 35.88,3.6 35.92,3.7 L36.04,3.7 C36.22,3.62 36.2,3.24 36.46,3.36 C36.64,3.48 36.72,3.74 36.62,3.92 C36.46,4.06 36.32,4.18 36.16,4.3 C36.12,4.38 36.12,4.48 36.16,4.56 C36.28,4.72 36.32,4.86 36.34,5.02 C36.46,5.28 36.5,5.58 36.6,5.84 C36.76,6.4 36.9,6.98 36.86,7.54 C36.86,7.84 36.7,8.1 36.82,8.4 C36.9,8.7 37.08,8.92 37.24,9.2 C37.4,9.42 37.54,9.58 37.66,9.8 C37.88,10.18 38.3,10.56 38.12,11 C38,11.26 37.6,11.22 37.32,11.38 C37.1,11.56 37.28,11.86 37.4,12.06 C37.58,12.4 37.18,12.62 36.92,12.74 C37,12.86 37.14,12.82 37.18,12.9 C37.22,13.08 37.4,13.2 37.3,13.38 C37.14,13.6 36.7,13.72 36.92,14.06 C37.08,14.32 36.98,14.62 36.88,14.88 C36.76,15.22 36.46,15.36 36.2,15.44 C35.98,15.52 35.72,15.52 35.48,15.48 C35.4,15.44 35.32,15.4 35.26,15.4 C34.62,15.32 33.98,15.14 33.34,15.14 C33.16,15.18 32.96,15.22 32.82,15.3 C32.64,15.42 32.5,15.56 32.36,15.7 C32.36,15.7 32.36,15.7 32.36,15.7 C32.34,15.74 32.3,15.76 32.28,15.8 C32.26,15.82 32.24,15.84 32.24,15.86 L32.2,15.9 C32.1,16.04 32,16.18 31.9,16.34 C31.9,16.34 31.88,16.36 31.88,16.36 C31.88,16.38 31.86,16.4 31.86,16.42 C31.74,16.64 31.64,16.88 31.58,17.12 C31.32,17.98 31.44,18.72 31.62,18.9 C31.66,18.94 32.86,19.32 33.7,19.68 C34.1,19.86 34.36,19.98 34.58,20.12 L55.64,20.12 L55.64,0.2 L55.62,0.2 Z" id="Path" fill="#E1000F"></path>
                <path d="M35.46,7.46 C35.62,7.5 35.84,7.5 35.84,7.58 C35.76,7.88 35.32,7.96 35.08,8.26 L34.96,8.26 C34.84,8.34 34.88,8.52 34.78,8.52 C34.66,8.48 34.56,8.52 34.44,8.56 C34.6,8.72 34.78,8.82 35,8.78 C35.04,8.78 35.12,8.86 35.12,8.94 C35.12,8.94 35.16,8.94 35.2,8.9 C35.24,8.9 35.28,8.9 35.28,8.94 L35.28,9.1 C35.16,9.24 34.98,9.18 34.82,9.22 C35.12,9.3 35.42,9.3 35.68,9.22 C35.9,9.14 35.68,8.76 35.84,8.58 C35.76,8.58 35.84,8.46 35.76,8.46 C35.84,8.38 35.92,8.28 35.98,8.24 C36.06,8.24 36.16,8.2 36.2,8.12 C36.2,8.04 36.04,8 36.08,7.94 C36.3,7.78 36.5,7.56 36.42,7.34 C36.38,7.22 36.08,7.22 35.9,7.16 C35.72,7.08 35.48,7.16 35.26,7.2 C35.08,7.2 34.88,7.32 34.7,7.34 C34.44,7.42 34.22,7.56 33.98,7.72 C34.24,7.6 34.5,7.56 34.8,7.5 C35.04,7.46 35.24,7.42 35.46,7.46" id="Path" fill="#808080"></path>
                <path d="M49.5,106.12 C49.94,106.12 50.32,106.46 50.12,107.24 L48.1,107.78 C48.42,106.82 49.02,106.12 49.5,106.12 M50.62,109.4 L50.22,109.4 C49.72,110 49.16,110.48 48.62,110.48 C48.06,110.48 47.78,110.14 47.78,109.4 C47.78,109.1 47.82,108.78 47.88,108.5 L51.14,107.42 C51.78,105.9 51.02,105.24 50.12,105.24 C48.58,105.24 46.82,107.94 46.82,110.1 C46.82,111.12 47.3,111.68 48.06,111.68 C48.94,111.66 49.86,110.8 50.62,109.4 M50.1,104.52 L51.96,102.82 L51.96,102.58 L50.72,102.58 L49.62,104.52 L50.1,104.52 Z M43.14,106.16 L44.22,106.16 L42.5,110.88 C42.34,111.28 42.56,111.68 42.98,111.68 C44.2,111.68 45.66,110.64 46.22,109.16 L45.92,109.16 C45.48,109.78 44.52,110.46 43.8,110.58 L45.38,106.16 L47,106.16 L47.2,105.48 L45.62,105.48 L46.22,103.78 L45.6,103.78 L44.48,105.48 L43.14,105.66 L43.14,106.16 L43.14,106.16 Z M42.02,105.94 C42.16,105.5 41.86,105.26 41.64,105.26 C40.7,105.26 39.58,106.1 39.12,107.3 L39.42,107.3 C39.72,106.86 40.24,106.38 40.74,106.3 L38.94,111 C38.78,111.44 39.1,111.68 39.32,111.68 C40.22,111.68 41.26,110.82 41.72,109.64 L41.4,109.64 C41.1,110.08 40.58,110.56 40.08,110.64 L42.02,105.94 Z M42.2,104.06 C42.6,104.06 42.94,103.74 42.94,103.32 C42.94,102.92 42.6,102.58 42.2,102.58 C41.78,102.58 41.46,102.92 41.46,103.32 C41.46,103.72 41.8,104.06 42.2,104.06 M33.46,106.56 C33.74,106.56 33.9,107 33.46,107.96 L32.18,110.8 C31.94,111.34 32.2,111.68 32.72,111.68 C33.04,111.68 33.18,111.6 33.32,111.26 L34.58,107.94 C35.16,107.24 36.24,106.48 36.7,106.48 C37.04,106.48 37,106.76 36.78,107.18 L34.86,110.88 C34.68,111.24 34.92,111.68 35.34,111.68 C36.28,111.68 37.4,110.84 37.86,109.64 L37.56,109.64 C37.26,110.08 36.74,110.56 36.24,110.64 L37.9,107.3 C38.12,106.88 38.22,106.48 38.22,106.16 C38.22,105.62 37.92,105.26 37.34,105.26 C36.52,105.26 35.82,106.18 34.84,107.32 L34.84,106.44 C34.84,105.82 34.64,105.26 34.08,105.26 C33.42,105.26 32.82,106.28 32.36,107.3 L32.66,107.3 C32.94,106.82 33.22,106.56 33.46,106.56 M32.16,106.68 C32.38,105.92 32.26,105.24 31.68,105.24 C30.94,105.24 30.72,105.74 29.98,107.3 L29.98,106.42 C29.98,105.8 29.78,105.24 29.22,105.24 C28.56,105.24 27.96,106.26 27.5,107.28 L27.8,107.28 C28.12,106.82 28.42,106.54 28.66,106.54 C28.94,106.54 29.1,106.98 28.66,107.94 L27.38,110.78 C27.14,111.32 27.4,111.66 27.92,111.66 C28.24,111.66 28.38,111.58 28.52,111.24 L29.78,107.92 C30.14,107.48 30.46,107.1 30.86,106.68 L32.16,106.68 L32.16,106.68 Z M25.22,106.12 C25.66,106.12 26.04,106.46 25.84,107.24 L23.82,107.78 C24.14,106.82 24.74,106.12 25.22,106.12 M26.34,109.4 L25.94,109.4 C25.44,110 24.88,110.48 24.34,110.48 C23.78,110.48 23.5,110.14 23.5,109.4 C23.5,109.1 23.54,108.78 23.6,108.5 L26.86,107.42 C27.5,105.9 26.74,105.24 25.84,105.24 C24.3,105.24 22.54,107.94 22.54,110.1 C22.54,111.12 23.02,111.68 23.78,111.68 C24.66,111.66 25.58,110.8 26.34,109.4 M18.86,106.16 L19.94,106.16 L18.22,110.88 C18.06,111.28 18.28,111.68 18.7,111.68 C19.92,111.68 21.38,110.64 21.94,109.16 L21.64,109.16 C21.2,109.78 20.24,110.46 19.52,110.58 L21.1,106.16 L22.72,106.16 L22.92,105.48 L21.34,105.48 L21.94,103.78 L21.32,103.78 L20.2,105.48 L18.86,105.66 L18.86,106.16 L18.86,106.16 Z M13.14,109.82 C13.14,108.36 14.76,106.4 15.66,106.4 C15.86,106.4 16.06,106.42 16.22,106.48 L15.28,109 C14.74,109.66 13.9,110.46 13.5,110.46 C13.28,110.46 13.14,110.26 13.14,109.82 M18.1,104.98 L17.6,104.94 L17.04,105.5 L16.94,105.5 C14.56,105.5 12.02,108.46 12.02,110.78 C12.02,111.32 12.32,111.68 12.9,111.68 C13.6,111.68 14.28,110.68 15.04,109.62 L15,110 C14.9,111.08 15.24,111.68 15.8,111.68 C16.46,111.68 17.06,110.66 17.52,109.64 L17.22,109.64 C16.9,110.1 16.6,110.38 16.36,110.38 C16.12,110.38 15.94,109.94 16.36,108.98 L18.1,104.98 Z M13.02,106.68 C13.24,105.92 13.12,105.24 12.54,105.24 C11.8,105.24 11.58,105.74 10.84,107.3 L10.84,106.42 C10.84,105.8 10.64,105.24 10.08,105.24 C9.42,105.24 8.82,106.26 8.36,107.28 L8.66,107.28 C8.98,106.82 9.28,106.54 9.5,106.54 C9.78,106.54 9.94,106.98 9.5,107.94 L8.22,110.8 C7.98,111.34 8.24,111.68 8.76,111.68 C9.08,111.68 9.22,111.6 9.36,111.26 L10.62,107.94 C10.98,107.5 11.3,107.12 11.7,106.7 L13.02,106.7 L13.02,106.68 Z M4.66,111.44 L4.78,111.08 C3.2,110.78 3,110.78 3.64,109.08 L4.22,107.48 L5.48,107.48 C6.26,107.48 6.26,107.82 6.16,108.68 L6.6,108.68 L7.64,105.84 L7.2,105.84 C6.82,106.52 6.5,107.04 5.66,107.04 L4.4,107.04 L5.26,104.7 C5.56,103.86 5.7,103.7 6.78,103.7 L7.06,103.7 C8.16,103.7 8.28,104 8.28,105.16 L8.72,105.16 L9.08,103.22 L3.02,103.22 L2.9,103.58 C4.16,103.84 4.28,103.96 3.7,105.58 L2.4,109.06 C1.8,110.68 1.56,110.8 0.12,111.06 L0,111.44 L4.66,111.44 Z" id="Shape" fill="#000000"></path>
                <path d="M34.8,92.4 C35.24,92.4 35.62,92.74 35.42,93.5 L33.4,94.04 C33.74,93.1 34.34,92.4 34.8,92.4 M35.92,95.66 L35.52,95.66 C35.02,96.26 34.46,96.74 33.92,96.74 C33.36,96.74 33.08,96.4 33.08,95.66 C33.08,95.36 33.12,95.04 33.18,94.76 L36.46,93.68 C37.1,92.16 36.32,91.5 35.44,91.5 C33.9,91.5 32.14,94.2 32.14,96.36 C32.14,97.38 32.62,97.94 33.38,97.94 C34.26,97.94 35.18,97.08 35.92,95.66 M35.4,90.8 L37.26,89.1 L37.26,88.86 L36.02,88.86 L34.92,90.8 L35.4,90.8 Z M28.46,92.44 L29.54,92.44 L27.82,97.16 C27.66,97.56 27.88,97.96 28.3,97.96 C29.52,97.96 30.98,96.92 31.54,95.44 L31.24,95.44 C30.8,96.06 29.84,96.74 29.12,96.86 L30.7,92.44 L32.32,92.44 L32.52,91.76 L30.94,91.76 L31.54,90.06 L30.92,90.06 L29.8,91.76 L28.46,91.94 L28.46,92.44 L28.46,92.44 Z M27.34,92.2 C27.46,91.76 27.18,91.52 26.94,91.52 C26,91.52 24.88,92.38 24.42,93.56 L24.72,93.56 C25.02,93.12 25.54,92.64 26.04,92.56 L24.24,97.26 C24.08,97.7 24.4,97.94 24.62,97.94 C25.52,97.94 26.56,97.08 27.02,95.9 L26.72,95.9 C26.42,96.34 25.9,96.82 25.4,96.9 L27.34,92.2 Z M27.52,90.34 C27.92,90.34 28.26,90 28.26,89.6 C28.26,89.2 27.92,88.86 27.52,88.86 C27.1,88.86 26.78,89.2 26.78,89.6 C26.78,90 27.12,90.34 27.52,90.34 M21.74,96.9 L24.72,88.98 L24.62,88.86 L22.56,89.1 L22.56,89.34 L22.96,89.64 C23.32,89.92 23.2,90.18 22.88,91.06 L20.6,97.14 C20.42,97.5 20.66,97.94 21.08,97.94 C22.02,97.94 23.02,97.08 23.48,95.9 L23.18,95.9 C22.86,96.34 22.22,96.82 21.74,96.9 M15.64,96.1 C15.64,94.64 17.26,92.68 18.16,92.68 C18.36,92.68 18.54,92.7 18.72,92.76 L17.78,95.28 C17.24,95.94 16.4,96.74 16.02,96.74 C15.78,96.74 15.64,96.54 15.64,96.1 M20.6,91.26 L20.1,91.22 L19.54,91.78 L19.44,91.78 C17.06,91.78 14.52,94.74 14.52,97.06 C14.52,97.6 14.82,97.96 15.4,97.96 C16.1,97.96 16.78,96.96 17.54,95.9 L17.5,96.28 C17.4,97.36 17.74,97.96 18.3,97.96 C18.96,97.96 19.56,96.94 20.02,95.92 L19.72,95.92 C19.4,96.38 19.1,96.66 18.86,96.66 C18.62,96.66 18.44,96.22 18.86,95.26 L20.6,91.26 Z M9.06,99.1 C9.06,98.48 9.66,98.08 10.52,97.74 C10.8,97.88 11.22,98.04 11.8,98.22 C12.7,98.52 13.04,98.64 13.04,98.9 C13.04,99.48 12.22,99.92 10.72,99.92 C9.6,99.92 9.06,99.68 9.06,99.1 M11.52,95.28 C11.12,95.28 10.98,94.94 10.98,94.58 C10.98,93.42 11.54,91.98 12.44,91.98 C12.84,91.98 12.98,92.32 12.98,92.68 C12.96,93.86 12.4,95.28 11.52,95.28 M14.06,98.52 C14.06,97.76 13.38,97.5 12.28,97.16 C11.34,96.88 10.92,96.8 10.92,96.48 C10.92,96.24 11.12,95.94 11.52,95.72 C13.08,95.64 14.06,94.24 14.06,93.02 C14.06,92.8 14.02,92.6 13.96,92.42 L15.02,92.42 L15.22,91.74 L13.42,91.74 C13.18,91.58 12.88,91.5 12.54,91.5 C10.9,91.5 9.86,92.94 9.86,94.2 C9.86,95.02 10.34,95.58 11.08,95.68 C10.32,96.04 9.88,96.42 9.88,96.9 C9.88,97.18 9.98,97.38 10.22,97.54 C8.46,98.06 7.74,98.7 7.74,99.48 C7.74,100.3 8.82,100.64 10.08,100.64 C12.26,100.66 14.06,99.5 14.06,98.52 M5.94,93.74 C6.72,93.74 6.74,94.08 6.62,94.94 L7.06,94.94 L8.1,92.1 L7.66,92.1 C7.28,92.78 6.96,93.3 6.12,93.3 L4.4,93.3 L5.24,90.96 C5.54,90.12 5.68,89.96 6.76,89.96 L7.52,89.96 C8.62,89.96 8.74,90.26 8.74,91.42 L9.18,91.42 L9.54,89.48 L3.02,89.48 L2.9,89.84 C4.16,90.1 4.28,90.22 3.7,91.84 L2.4,95.34 C1.8,96.96 1.56,97.08 0.1,97.34 L0,97.72 L7.24,97.72 L8.54,95.66 L8.04,95.66 C7.2,96.48 6.36,97.24 4.72,97.24 C2.8,97.24 2.96,97.14 3.6,95.36 L4.2,93.76 L5.94,93.76 L5.94,93.74 Z M6.88,88.86 L8.74,87.52 L8.74,87.28 L7.5,87.28 L6.4,88.88 L6.88,88.88 L6.88,88.86 Z" id="Shape" fill="#000000"></path>
                <path d="M34.58,78.68 C35.02,78.68 35.4,79.02 35.2,79.78 L33.18,80.32 C33.5,79.38 34.1,78.68 34.58,78.68 M35.7,81.94 L35.3,81.94 C34.8,82.54 34.24,83.02 33.7,83.02 C33.14,83.02 32.86,82.68 32.86,81.94 C32.86,81.64 32.9,81.32 32.96,81.04 L36.22,79.96 C36.86,78.44 36.08,77.78 35.2,77.78 C33.66,77.78 31.9,80.48 31.9,82.64 C31.9,83.66 32.38,84.2 33.14,84.2 C34.02,84.22 34.94,83.36 35.7,81.94 M35.18,77.08 L37.04,75.38 L37.04,75.14 L35.8,75.14 L34.7,77.08 L35.18,77.08 Z M28.22,78.72 L29.3,78.72 L27.58,83.44 C27.42,83.84 27.64,84.24 28.06,84.24 C29.28,84.24 30.74,83.2 31.3,81.72 L31,81.72 C30.56,82.34 29.6,83.02 28.88,83.14 L30.46,78.72 L32.08,78.72 L32.28,78.04 L30.7,78.04 L31.3,76.34 L30.68,76.34 L29.56,78.04 L28.22,78.22 L28.22,78.72 L28.22,78.72 Z M27.66,79.24 C27.88,78.48 27.76,77.8 27.18,77.8 C26.44,77.8 26.22,78.3 25.48,79.86 L25.48,78.98 C25.48,78.36 25.28,77.8 24.72,77.8 C24.06,77.8 23.46,78.82 23,79.84 L23.3,79.84 C23.62,79.38 23.92,79.1 24.14,79.1 C24.42,79.1 24.58,79.54 24.14,80.5 L22.86,83.34 C22.62,83.88 22.88,84.22 23.4,84.22 C23.72,84.22 23.86,84.14 24,83.8 L25.26,80.48 C25.62,80.04 25.94,79.66 26.34,79.24 L27.66,79.24 Z M20.7,78.68 C21.14,78.68 21.52,79.02 21.32,79.78 L19.3,80.32 C19.64,79.38 20.22,78.68 20.7,78.68 M21.82,81.94 L21.42,81.94 C20.92,82.54 20.36,83.02 19.82,83.02 C19.26,83.02 18.98,82.68 18.98,81.94 C18.98,81.64 19.02,81.32 19.08,81.04 L22.34,79.96 C22.98,78.44 22.22,77.78 21.32,77.78 C19.78,77.78 18.02,80.48 18.02,82.64 C18.02,83.66 18.5,84.2 19.26,84.2 C20.14,84.22 21.06,83.36 21.82,81.94 M14.2,83.26 C13.88,83.26 13.42,82.96 13.42,82.7 C13.42,82.62 13.56,82.26 13.74,81.8 L14.26,80.4 C14.82,79.72 15.7,79 16.18,79 C16.48,79 16.7,79.18 16.7,79.62 C16.72,80.92 15.5,83.26 14.2,83.26 M17.84,79.12 C17.84,78.16 17.6,77.8 16.92,77.8 C16.08,77.8 15.3,78.7 14.52,79.78 L16.2,75.28 L16.1,75.14 L14.04,75.38 L14.04,75.62 L14.44,75.92 C14.8,76.2 14.68,76.48 14.36,77.34 L12.54,82.1 C12.38,82.5 12.2,82.98 12.2,83.1 C12.2,83.66 12.96,84.2 13.66,84.2 C15.22,84.22 17.84,81.34 17.84,79.12 M11.72,78.48 C11.84,78.04 11.56,77.8 11.32,77.8 C10.38,77.8 9.26,78.66 8.8,79.84 L9.1,79.84 C9.4,79.4 9.92,78.92 10.42,78.84 L8.62,83.54 C8.46,83.98 8.78,84.22 9.02,84.22 C9.92,84.22 10.96,83.36 11.42,82.18 L11.12,82.18 C10.82,82.62 10.3,83.1 9.8,83.18 L11.72,78.48 Z M11.92,76.6 C12.32,76.6 12.66,76.26 12.66,75.86 C12.66,75.46 12.32,75.12 11.92,75.12 C11.5,75.12 11.18,75.46 11.18,75.86 C11.18,76.28 11.5,76.6 11.92,76.6 M7.32,75.72 L3.02,75.72 L2.9,76.08 C4.16,76.34 4.28,76.46 3.7,78.08 L2.4,81.62 C1.8,83.24 1.56,83.36 0.12,83.62 L0,83.98 L6.54,83.98 L7.96,81.46 L7.46,81.46 C6.64,82.36 5.72,83.5 4.26,83.5 C3.16,83.5 3,83.3 3.62,81.62 L4.9,78.1 C5.5,76.48 5.74,76.36 7.2,76.1 L7.32,75.72 Z" id="Shape" fill="#000000"></path>
            </g>
        </g>
    </g>
</svg>